<svg xmlns="http://www.w3.org/2000/svg" width="1752" height="1075" viewBox="0 0 1752 1075">
  <g id="Sondage_à_l_unité" data-name="Sondage à l&apos;unité" transform="translate(-84 -3376)">
    <rect id="fond" width="1752" height="573" transform="translate(84 3878)" fill="#f5f2f2"/>
    <g id="entreprise" transform="translate(893)">
      <g id="cadre" transform="translate(168 3376)" fill="#fff">
        <path d="M 621 817.5 L 38 817.5 C 32.93730163574219 817.5 28.02630043029785 816.5086059570313 23.40349960327148 814.5532836914063 C 18.93810081481934 812.6646118164063 14.92759990692139 809.9605712890625 11.48349952697754 806.5164794921875 C 8.039400100708008 803.0723876953125 5.335400104522705 799.0618896484375 3.446700096130371 794.5964965820313 C 1.491400003433228 789.9736938476563 0.5 785.0626831054688 0.5 780 L 0.5 38 C 0.5 32.93730163574219 1.491400003433228 28.02630043029785 3.446700096130371 23.40349960327148 C 5.335400104522705 18.93810081481934 8.039400100708008 14.92759990692139 11.48349952697754 11.48349952697754 C 14.92759990692139 8.039400100708008 18.93810081481934 5.335400104522705 23.40349960327148 3.446700096130371 C 28.02630043029785 1.491400003433228 32.93730163574219 0.5 38 0.5 L 621 0.5 C 624.0474853515625 0.5 627.0755004882813 0.8666999936103821 629.9998168945313 1.589800000190735 C 632.848388671875 2.29419994354248 635.6165771484375 3.340800046920776 638.227294921875 4.700600147247314 C 640.7982177734375 6.039599895477295 643.2257080078125 7.686800003051758 645.4423217773438 9.59630012512207 C 647.6519165039063 11.49969959259033 649.6567993164063 13.66790008544922 651.4014282226563 16.04070091247559 C 653.6392211914063 19.08279991149902 655.3883056640625 22.48299980163574 656.5999145507813 26.14690017700195 C 657.8607177734375 29.95949935913086 658.5 33.9474983215332 658.5 38 L 658.5 780 C 658.5 785.0626831054688 657.5086059570313 789.9736938476563 655.5532836914063 794.5964965820313 C 653.6646118164063 799.0618896484375 650.9605712890625 803.0723876953125 647.5164794921875 806.5164794921875 C 644.0723876953125 809.9605712890625 640.0618896484375 812.6646118164063 635.5964965820313 814.5532836914063 C 630.9736938476563 816.5086059570313 626.0626831054688 817.5 621 817.5 Z" stroke="none"/>
        <path d="M 38 1 C 33.00457763671875 1 28.15911865234375 1.97808837890625 23.59820556640625 3.9072265625 C 19.1923828125 5.77069091796875 15.23541259765625 8.438720703125 11.83709716796875 11.83709716796875 C 8.438720703125 15.23541259765625 5.77069091796875 19.1923828125 3.9072265625 23.59820556640625 C 1.97808837890625 28.15911865234375 1 33.00457763671875 1 38 L 1 780 C 1 784.9954223632813 1.97808837890625 789.8408813476563 3.9072265625 794.4017944335938 C 5.77069091796875 798.8076171875 8.438720703125 802.7645874023438 11.83709716796875 806.1629028320313 C 15.23541259765625 809.561279296875 19.1923828125 812.2293090820313 23.59820556640625 814.0927734375 C 28.15911865234375 816.0219116210938 33.00457763671875 817 38 817 L 621 817 C 625.9954223632813 817 630.8408813476563 816.0219116210938 635.4017944335938 814.0927734375 C 639.8076171875 812.2293090820313 643.7645874023438 809.561279296875 647.1629028320313 806.1629028320313 C 650.561279296875 802.7645874023438 653.2293090820313 798.8076171875 655.0927734375 794.4017944335938 C 657.0219116210938 789.8408813476563 658 784.9954223632813 658 780 L 658 38 C 658 34.00091552734375 657.3692016601563 30.0657958984375 656.1251831054688 26.30389404296875 C 654.9301147460938 22.69000244140625 653.205322265625 19.33660888671875 650.9984741210938 16.3367919921875 C 649.2763061523438 13.99432373046875 647.297119140625 11.8538818359375 645.1160278320313 9.9749755859375 C 642.9285278320313 8.090576171875 640.5330810546875 6.46527099609375 637.9962768554688 5.14398193359375 C 635.4207153320313 3.8026123046875 632.6898803710938 2.77008056640625 629.8798217773438 2.0751953125 C 626.99462890625 1.3616943359375 624.0070190429688 1 621 1 L 38 1 M 38 0 L 621 0 C 633.5709838867188 0 644.71630859375 6.10418701171875 651.80419921875 15.744384765625 C 656.2642211914063 21.807373046875 659 29.584228515625 659 38 L 659 780 C 659 800.98681640625 641.98681640625 818 621 818 L 38 818 C 17.01318359375 818 0 800.98681640625 0 780 L 0 38 C 0 17.01318359375 17.01318359375 0 38 0 Z" stroke="none" fill="#707070"/>
      </g>
      <ellipse id="Ellipse_16" data-name="Ellipse 16" cx="163" cy="127" rx="163" ry="127" transform="translate(331 3990)" fill="#343232"/>
      <ellipse id="Ellipse_14" data-name="Ellipse 14" cx="245" cy="247" rx="245" ry="247" transform="translate(253 3947)" fill="#f5f2f2"/>
      <text id="Inclus_toutes_les_fonctionnalités_de_l_abonnement_Entreprise_" data-name="Inclus toutes les fonctionnalités de l&apos;abonnement Entreprise " transform="translate(202 3775)" fill="#343232" font-size="35" font-family="SegoeUI, Segoe UI"><tspan x="37.411" y="38">Inclus toutes les fonctionnalités de </tspan><tspan x="114.871" y="85">l&apos;abonnement Entreprise </tspan></text>
      <text id="_29_99_" data-name="29,99 €" transform="translate(385 3724)" fill="#343232" font-size="66" font-family="SegoeUI-Bold, Segoe UI" font-weight="700"><tspan x="0" y="0">29,99 €</tspan></text>
      <text id="à_partir_de" data-name="à partir de" transform="translate(454 3648)" fill="#343232" font-size="20" font-family="SegoeUI-Light, Segoe UI" font-weight="300"><tspan x="0" y="0">à partir de</tspan></text>
      <text id="Sondage_Entreprise" data-name="Sondage Entreprise" transform="translate(276 3551)" fill="#bdde78" font-size="50" font-family="SegoeUI-Bold, Segoe UI" font-weight="700"><tspan x="0" y="0">Sondage Entreprise</tspan></text>
    </g>
    <g id="essentials" transform="translate(32)">
      <g id="cadre-2" data-name="cadre" transform="translate(168 3376)" fill="#fff">
        <path d="M 621 817.5 L 38 817.5 C 32.93730163574219 817.5 28.02630043029785 816.5086059570313 23.40349960327148 814.5532836914063 C 18.93810081481934 812.6646118164063 14.92759990692139 809.9605712890625 11.48349952697754 806.5164794921875 C 8.039400100708008 803.0723876953125 5.335400104522705 799.0618896484375 3.446700096130371 794.5964965820313 C 1.491400003433228 789.9736938476563 0.5 785.0626831054688 0.5 780 L 0.5 38 C 0.5 32.93730163574219 1.491400003433228 28.02630043029785 3.446700096130371 23.40349960327148 C 5.335400104522705 18.93810081481934 8.039400100708008 14.92759990692139 11.48349952697754 11.48349952697754 C 14.92759990692139 8.039400100708008 18.93810081481934 5.335400104522705 23.40349960327148 3.446700096130371 C 28.02630043029785 1.491400003433228 32.93730163574219 0.5 38 0.5 L 621 0.5 C 624.0474853515625 0.5 627.0755004882813 0.8666999936103821 629.9998168945313 1.589800000190735 C 632.848388671875 2.29419994354248 635.6165771484375 3.340800046920776 638.227294921875 4.700600147247314 C 640.7982177734375 6.039599895477295 643.2257080078125 7.686800003051758 645.4423217773438 9.59630012512207 C 647.6519165039063 11.49969959259033 649.6567993164063 13.66790008544922 651.4014282226563 16.04070091247559 C 653.6392211914063 19.08279991149902 655.3883056640625 22.48299980163574 656.5999145507813 26.14690017700195 C 657.8607177734375 29.95949935913086 658.5 33.9474983215332 658.5 38 L 658.5 780 C 658.5 785.0626831054688 657.5086059570313 789.9736938476563 655.5532836914063 794.5964965820313 C 653.6646118164063 799.0618896484375 650.9605712890625 803.0723876953125 647.5164794921875 806.5164794921875 C 644.0723876953125 809.9605712890625 640.0618896484375 812.6646118164063 635.5964965820313 814.5532836914063 C 630.9736938476563 816.5086059570313 626.0626831054688 817.5 621 817.5 Z" stroke="none"/>
        <path d="M 38 1 C 33.00457763671875 1 28.15911865234375 1.97808837890625 23.59820556640625 3.9072265625 C 19.1923828125 5.77069091796875 15.23541259765625 8.438720703125 11.83709716796875 11.83709716796875 C 8.438720703125 15.23541259765625 5.77069091796875 19.1923828125 3.9072265625 23.59820556640625 C 1.97808837890625 28.15911865234375 1 33.00457763671875 1 38 L 1 780 C 1 784.9954223632813 1.97808837890625 789.8408813476563 3.9072265625 794.4017944335938 C 5.77069091796875 798.8076171875 8.438720703125 802.7645874023438 11.83709716796875 806.1629028320313 C 15.23541259765625 809.561279296875 19.1923828125 812.2293090820313 23.59820556640625 814.0927734375 C 28.15911865234375 816.0219116210938 33.00457763671875 817 38 817 L 621 817 C 625.9954223632813 817 630.8408813476563 816.0219116210938 635.4017944335938 814.0927734375 C 639.8076171875 812.2293090820313 643.7645874023438 809.561279296875 647.1629028320313 806.1629028320313 C 650.561279296875 802.7645874023438 653.2293090820313 798.8076171875 655.0927734375 794.4017944335938 C 657.0219116210938 789.8408813476563 658 784.9954223632813 658 780 L 658 38 C 658 34.00091552734375 657.3692016601563 30.0657958984375 656.1251831054688 26.30389404296875 C 654.9301147460938 22.69000244140625 653.205322265625 19.33660888671875 650.9984741210938 16.3367919921875 C 649.2763061523438 13.99432373046875 647.297119140625 11.8538818359375 645.1160278320313 9.9749755859375 C 642.9285278320313 8.090576171875 640.5330810546875 6.46527099609375 637.9962768554688 5.14398193359375 C 635.4207153320313 3.8026123046875 632.6898803710938 2.77008056640625 629.8798217773438 2.0751953125 C 626.99462890625 1.3616943359375 624.0070190429688 1 621 1 L 38 1 M 38 0 L 621 0 C 633.5709838867188 0 644.71630859375 6.10418701171875 651.80419921875 15.744384765625 C 656.2642211914063 21.807373046875 659 29.584228515625 659 38 L 659 780 C 659 800.98681640625 641.98681640625 818 621 818 L 38 818 C 17.01318359375 818 0 800.98681640625 0 780 L 0 38 C 0 17.01318359375 17.01318359375 0 38 0 Z" stroke="none" fill="#707070"/>
      </g>
      <ellipse id="Ellipse_16-2" data-name="Ellipse 16" cx="163" cy="127" rx="163" ry="127" transform="translate(331 3990)" fill="#343232"/>
      <ellipse id="Ellipse_14-2" data-name="Ellipse 14" cx="245" cy="247" rx="245" ry="247" transform="translate(253 3947)" fill="#f5f2f2"/>
      <text id="Inclus_toutes_les_fonctionnalités_de_l_abonnement_Essentials_" data-name="Inclus toutes les fonctionnalités de l&apos;abonnement Essentials " transform="translate(202 3775)" fill="#343232" font-size="35" font-family="SegoeUI, Segoe UI"><tspan x="37.411" y="38">Inclus toutes les fonctionnalités de </tspan><tspan x="118.485" y="85">l&apos;abonnement Essentials </tspan></text>
      <text id="_9_99_" data-name="9,99 €" transform="translate(404 3724)" fill="#343232" font-size="66" font-family="SegoeUI-Bold, Segoe UI" font-weight="700"><tspan x="0" y="0">9,99 €</tspan></text>
      <text id="à_partir_de-2" data-name="à partir de" transform="translate(454 3648)" fill="#343232" font-size="20" font-family="SegoeUI-Light, Segoe UI" font-weight="300"><tspan x="0" y="0">à partir de</tspan></text>
      <text id="Sondage_Essentials" data-name="Sondage Essentials" transform="translate(276 3551)" fill="#3b79b6" font-size="50" font-family="SegoeUI-Bold, Segoe UI" font-weight="700"><tspan x="0" y="0">Sondage Essentials</tspan></text>
    </g>
    <rect id="cache" width="1752" height="207" transform="translate(84 4244)" fill="#fff"/>
    <g id="bouton_acheter" data-name="bouton acheter">
      <g id="bleu" transform="translate(-401 3308)">
        <rect id="Rectangle_14" data-name="Rectangle 14" width="301" height="74" transform="translate(780 768)" fill="#3b79b6"/>
        <text id="Acheter" transform="translate(869 819)" fill="#fff" font-size="34" font-family="SegoeUI-Bold, Segoe UI" font-weight="700"><tspan x="0" y="0">Acheter</tspan></text>
      </g>
      <g id="vert" transform="translate(460 3308)">
        <rect id="Rectangle_14-2" data-name="Rectangle 14" width="301" height="74" transform="translate(780 768)" fill="#bdde78"/>
        <text id="Acheter-2" data-name="Acheter" transform="translate(869 819)" fill="#fff" font-size="34" font-family="SegoeUI-Bold, Segoe UI" font-weight="700"><tspan x="0" y="0">Acheter</tspan></text>
      </g>
    </g>
  </g>
</svg>
